# xmcd
#
# Track frame offsets: 
#        150
#        18707
#        45532
#        74055
#        96407
#        126472
#        165812
#        182110
#        216537
#        235855
#        269200
#        292210
#
# Disc length: 4265 seconds
#
# Revision: 0
# Processed by: cddbd v1.5.2PL0 Copyright (c) Steve Scherf et al.
# Submitted via: ExactAudioCopy v1.0b3
#
DISCID=c810a70c
DTITLE=Wolfgang Amadeus Mozart - Boskovsky Conducts Mozart 
DYEAR=1970
DGENRE=Classical
TTITLE0=A Musical Joke K522 1 Allegro
TTITLE1=A Musical Joke K522 2 Minuetto e Trio
TTITLE2=A Musical Joke K522 3 Adagio cantabile
TTITLE3=A Musical Joke K522 4 Presto
TTITLE4=Serenade No.7 D major K250 HAFNER 1 Allegro molto
TTITLE5=Serenade No.7 D major K250 HAFNER 2 Andante
TTITLE6=Serenade No.7 D major K250 HAFNER 3 Minuetto e trio
TTITLE7=Serenade No.7 D major K250 HAFNER 4 Rondo(Allegro)
TTITLE8=Serenade No.7 D major K250 HAFNER 5 Minuetto galante e trio
TTITLE9=Serenade No.7 D major K250 HAFNER 6 Andante
TTITLE10=Serenade No.7 D major K250 HAFNER 7 Minuetto- Trio 1- Trio 2
TTITLE11=Serenade No.7 D major K250 HAFNER 8 Adagio- Allegro assai
EXTD=
EXTT0=
EXTT1=
EXTT2=
EXTT3=
EXTT4=
EXTT5=
EXTT6=
EXTT7=
EXTT8=
EXTT9=
EXTT10=
EXTT11=
PLAYORDER=
